<svg
xmlns="http://www.w3.org/2000/svg"
width="132"
height="14"
viewBox="0 0 132 14"
fill="none">
<path
fill-rule="evenodd"
clip-rule="evenodd"
d="M9.68 11.56h-1.2l-.9-2.32H2.77l-.9 2.32H.66l3.99-9.91H5.7l3.98 9.91zM5.11 3.22 3.18 8.18h3.97L5.22 3.22l-.05-.18-.06.18zM15.46 11.76c-.86 0-1.59-.2-2.2-.58-.62-.39-1.08-.91-1.39-1.58-.33-.67-.48-1.43-.48-2.28V1.65h1.15v5.6c0 .66.11 1.25.34 1.76.23.52.55.92.99 1.21.43.3.97.44 1.59.44.61 0 1.14-.14 1.56-.44.44-.28.78-.69.99-1.2.23-.52.34-1.11.34-1.77v-5.6h1.15v5.67c0 .85-.15 1.61-.48 2.28-.31.67-.77 1.19-1.38 1.58-.62.38-1.33.58-2.18.58zM26.17 11.56h-1.15V2.75h-3.2v-1.1h7.57v1.1h-3.22v8.81zM35.8 11.73c-.94 0-1.78-.24-2.57-.69-.78-.45-1.38-1.07-1.85-1.85-.45-.79-.68-1.64-.68-2.59 0-.93.23-1.79.68-2.58.47-.77 1.07-1.39 1.85-1.84.79-.45 1.63-.68 2.57-.68s1.8.23 2.57.68c.77.45 1.39 1.07 1.85 1.84.45.79.67 1.65.67 2.58 0 .95-.22 1.8-.67 2.59-.46.78-1.08 1.4-1.85 1.85-.77.45-1.63.69-2.57.69zm0-1.13c.71 0 1.36-.18 1.96-.53.61-.35 1.09-.83 1.44-1.44.35-.61.52-1.28.52-2.01 0-.74-.17-1.41-.52-2.03-.35-.61-.83-1.1-1.44-1.46-.6-.35-1.25-.52-1.96-.52s-1.36.17-1.97.52c-.59.36-1.07.85-1.42 1.46-.35.62-.52 1.29-.52 2.03 0 .73.17 1.4.52 2.01a3.88 3.88 0 0 0 3.39 1.97zM47.24 11.56H46.2l-3.99-9.91h1.25l3.27 8.32 3.13-8.32h1.24l-1.48 3.91 1.72 4.4 3.21-8.31h1.26l-3.98 9.91H50.8l-1.77-4.49-1.79 4.49zM65.23 11.56h-7.02V1.65h6.92v1.1h-5.76v3.2h4.69v1.07h-4.69v3.44h5.86v1.1zM75.39 11.56h-1.3l-1.63-3.58c-.23.03-.45.04-.68.04h-2.42v3.54H68.2V1.65h3.87c.66 0 1.24.15 1.73.4.49.27.89.63 1.15 1.13.27.48.41 1.03.41 1.66 0 .69-.15 1.28-.48 1.76-.31.48-.74.85-1.31 1.09l1.82 3.87zM69.36 7h2.61c.43 0 .83-.09 1.17-.27.33-.17.59-.42.77-.75.18-.32.28-.7.28-1.13 0-.43-.1-.81-.28-1.14a1.87 1.87 0 0 0-.77-.73 2.61 2.61 0 0 0-1.17-.25h-2.61V7zM86.51 11.56h-1.4L81.29 6.6l-1.88 2.1v2.86h-1.16V1.65h1.16v5.46l4.9-5.46h1.44l-3.69 4.11 4.45 5.8zM91.68 11.7c-.76 0-1.48-.15-2.17-.46-.69-.3-1.26-.72-1.71-1.28l.76-.74c.37.45.84.79 1.4 1.03.55.24 1.13.35 1.72.35.45 0 .84-.05 1.21-.19.35-.14.63-.34.83-.61.21-.27.31-.59.31-.97 0-.37-.11-.66-.34-.9-.21-.23-.5-.41-.87-.55-.35-.14-.86-.3-1.49-.47-.62-.15-1.15-.32-1.58-.52a2.81 2.81 0 0 1-1.09-.82c-.29-.35-.43-.81-.43-1.39 0-.51.14-.97.42-1.37.28-.41.68-.72 1.2-.94.5-.23 1.1-.34 1.76-.34.63 0 1.24.11 1.82.32.57.23 1.08.54 1.52.93l-.69.79c-.34-.29-.74-.53-1.2-.7-.45-.19-.93-.27-1.4-.27-.42 0-.8.06-1.15.2-.35.12-.62.31-.83.56-.2.24-.3.54-.3.86 0 .34.1.62.31.83.21.21.48.38.81.49.3.13.77.27 1.36.43.72.21 1.31.41 1.76.62.47.21.85.49 1.15.84.29.37.43.82.43 1.38 0 .61-.15 1.12-.46 1.55-.31.44-.74.77-1.27.99-.52.24-1.13.35-1.79.35zM101.05 11.56H99.9V2.75h-3.2v-1.1h7.57v1.1h-3.22v8.81zM113.66 11.56h-1.2l-.9-2.32h-4.81l-.9 2.32h-1.21l3.99-9.91h1.06l3.97 9.91zm-4.57-8.34-1.93 4.96h3.98l-1.93-4.96-.06-.18-.06.18zM118.38 11.56h-1.15V2.75h-3.2v-1.1h7.57v1.1h-3.22v8.81zM127.47 11.56h-1.16V2.75h-3.2v-1.1h7.57v1.1h-3.21v8.81z"
fill="rgb(230,20,20)"/>
</svg>
