<svg
xmlns="http://www.w3.org/2000/svg"
width="230"
height="30"
viewBox="0 0 230 30"
fill="none">
<path
fill-rule="evenodd"
clip-rule="evenodd"
d="M7.66 28.23V2.47h10.08c1.46 0 2.74.29 3.84.84a6.06 6.06 0 0 1 2.53 2.35c.59 1.02.88 2.16.88 3.48 0 .8-.15 1.54-.48 2.27-.29.73-.73 1.39-1.24 1.94-.55.55-1.14.99-1.8 1.25.88.22 1.72.62 2.46 1.24.73.59 1.32 1.36 1.76 2.27.44.92.66 1.91.66 2.97 0 1.47-.37 2.71-1.03 3.81-.7 1.07-1.61 1.91-2.75 2.46-1.13.58-2.38.88-3.74.88H7.66zm9.93-14.62c.8 0 1.54-.19 2.23-.59.66-.36 1.21-.91 1.62-1.57.4-.66.62-1.36.62-2.13 0-.81-.18-1.5-.55-2.16-.37-.66-.88-1.17-1.54-1.54-.7-.37-1.47-.59-2.35-.59h-7.03v8.58h7zm1.06 12.02c.88 0 1.69-.19 2.38-.63.74-.4 1.28-.99 1.69-1.72.4-.73.62-1.54.62-2.45 0-.88-.22-1.69-.66-2.42-.4-.73-.99-1.28-1.76-1.72-.77-.44-1.65-.66-2.64-.66h-7.69v9.6h8.06zM54.92 16.61h2.86v9.13c-1.21.91-2.57 1.65-4.07 2.16-1.5.51-3.04.77-4.58.77-2.45 0-4.65-.59-6.7-1.8-2.02-1.17-3.6-2.78-4.8-4.83-1.18-2.06-1.76-4.29-1.76-6.71s.58-4.65 1.76-6.71c1.2-2.01 2.78-3.62 4.8-4.83 2.05-1.18 4.25-1.76 6.7-1.76 1.61 0 3.15.29 4.66.84 1.5.59 2.82 1.36 3.95 2.38l-1.79 2.27c-.92-.8-1.98-1.42-3.15-1.9-1.18-.48-2.42-.7-3.67-.7-1.83 0-3.55.44-5.09 1.4-1.58.91-2.82 2.16-3.74 3.77a10.34 10.34 0 0 0-1.39 5.24c0 1.91.48 3.66 1.39 5.28.92 1.61 2.16 2.89 3.74 3.81 1.54.95 3.26 1.39 5.09 1.39.95 0 1.94-.11 2.97-.4 1.03-.26 1.94-.66 2.82-1.14v-7.66zM69.88 28.23V2.47h9.16c1.76 0 3.3.36 4.58 1.02 1.32.7 2.35 1.65 3.05 2.9.69 1.24 1.06 2.71 1.06 4.32 0 1.69-.33 3.15-1.03 4.44-.69 1.24-1.72 2.23-3 2.93-1.32.66-2.86 1.02-4.62 1.02h-6.19v9.13h-3.01zm8.98-11.91c1.17 0 2.2-.22 3.08-.66.88-.48 1.58-1.14 2.05-1.98.48-.84.73-1.79.73-2.93 0-1.1-.25-2.09-.73-2.89-.47-.85-1.17-1.47-2.05-1.95-.88-.44-1.91-.66-3.08-.66h-5.97v11.07h5.97zM130.16 28.23h-3.12l-2.34-6.05h-12.49l-2.35 6.05h-3.15l10.37-25.76h2.75l10.33 25.76zM118.29 6.54l-5.02 12.89h10.33l-5.02-12.89-.15-.48-.14.48zM149.21 28.74c-2.24 0-4.14-.51-5.72-1.5-1.61-1.03-2.82-2.38-3.63-4.11-.84-1.75-1.24-3.73-1.24-5.93V2.47h3v14.55c0 1.72.3 3.26.88 4.58.59 1.35 1.43 2.38 2.57 3.15 1.13.77 2.53 1.13 4.14 1.13 1.57 0 2.97-.36 4.07-1.13 1.13-.74 2.01-1.8 2.56-3.12.59-1.35.88-2.89.88-4.61V2.47h3.01V17.2c0 2.2-.41 4.18-1.25 5.93-.81 1.73-2.02 3.08-3.59 4.11-1.61.99-3.48 1.5-5.68 1.5zM181.12 28.23h-3.01V5.33h-8.31V2.47h19.67v2.86h-8.35v22.9zM210.21 28.67c-2.46 0-4.66-.62-6.71-1.8-2.01-1.17-3.59-2.78-4.8-4.8-1.17-2.05-1.76-4.28-1.76-6.74 0-2.42.59-4.65 1.76-6.71 1.21-2.01 2.79-3.62 4.8-4.8 2.05-1.17 4.25-1.75 6.71-1.75 2.42 0 4.65.58 6.67 1.75 2.01 1.18 3.62 2.79 4.8 4.8 1.17 2.06 1.76 4.29 1.76 6.71 0 2.46-.59 4.69-1.76 6.74a13.153 13.153 0 0 1-4.8 4.8c-2.02 1.18-4.25 1.8-6.67 1.8zm0-2.93c1.83 0 3.52-.48 5.09-1.4 1.58-.91 2.82-2.16 3.74-3.73.91-1.58 1.35-3.34 1.35-5.24 0-1.91-.44-3.67-1.35-5.28-.92-1.58-2.16-2.86-3.74-3.77-1.57-.92-3.26-1.36-5.09-1.36-1.87 0-3.56.44-5.13 1.36-1.54.91-2.79 2.19-3.7 3.77-.92 1.61-1.36 3.37-1.36 5.28 0 1.9.44 3.66 1.36 5.24.91 1.57 2.16 2.82 3.7 3.73 1.57.92 3.26 1.4 5.13 1.4z"
fill="#FFF"/>
</svg>
